<?xml version="1.0" standalone="no"?>
<!DOCTYPE svg PUBLIC "-//W3C//DTD SVG 20010904//EN"
 "http://www.w3.org/TR/2001/REC-SVG-20010904/DTD/svg10.dtd">
<svg version="1.0" xmlns="http://www.w3.org/2000/svg"
 width="2048.000000pt" height="2048.000000pt" viewBox="0 0 2048.000000 2048.000000"
 preserveAspectRatio="xMidYMid meet">

<g transform="translate(0.000000,2048.000000) scale(0.100000,-0.100000)"
fill="#000000" stroke="none">
<path d="M7248 14425 l-876 -874 691 -688 c381 -378 775 -770 877 -870 l185
-182 405 400 c223 220 617 612 875 870 l470 469 -875 874 -875 875 -877 -874z"/>
<path d="M11300 14424 l-875 -876 870 -864 c479 -475 875 -864 880 -864 6 0
403 391 883 868 l874 867 -724 720 c-397 395 -793 788 -878 872 l-155 153
-875 -876z"/>
<path d="M9276 12381 l-868 -867 866 -859 c477 -473 872 -862 878 -864 6 -2
399 385 874 860 l864 864 -867 867 c-478 478 -870 868 -873 867 -3 0 -396
-391 -874 -868z"/>
<path d="M7242 10352 l-873 -867 871 -870 c478 -478 874 -871 878 -873 5 -1
403 390 886 870 l877 873 -183 181 c-101 99 -495 489 -876 867 -381 378 -696
687 -700 686 -4 0 -400 -390 -880 -867z"/>
<path d="M11295 10350 l-870 -871 875 -869 c481 -478 878 -869 881 -867 4 1
174 168 379 370 l372 368 -55 57 c-104 110 -147 233 -147 427 0 203 57 358
178 487 104 110 197 158 350 179 97 14 221 -5 308 -47 70 -34 170 -131 199
-191 11 -24 25 -43 30 -43 6 0 39 28 73 63 l62 63 -826 824 c-454 454 -847
846 -872 872 -26 26 -52 48 -57 48 -6 0 -402 -392 -880 -870z m1105 -716 c126
-37 199 -96 245 -196 121 -265 -41 -548 -350 -613 -38 -8 -120 -15 -182 -15
l-111 0 -6 -47 c-3 -27 -11 -118 -17 -203 -6 -85 -12 -156 -12 -156 -1 -1 -68
-4 -149 -8 l-148 -6 0 39 c0 59 47 705 70 957 11 122 20 226 20 232 0 16 48
23 221 32 198 11 350 5 419 -16z"/>
<path d="M12050 9393 c0 -22 -17 -217 -26 -292 l-6 -53 99 4 c143 6 211 47
239 145 17 59 12 105 -17 152 -28 47 -72 61 -189 61 -89 0 -100 -2 -100 -17z"/>
<path d="M13244 9354 c-48 -17 -108 -73 -135 -125 -80 -158 -76 -417 9 -509
l27 -30 189 185 189 185 -7 62 c-10 89 -54 180 -103 212 -49 32 -115 40 -169
20z"/>
<path d="M9092 6430 c-115 -28 -140 -196 -36 -245 38 -18 140 -20 173 -2 59
30 85 109 56 171 -29 61 -115 95 -193 76z"/>
<path d="M13510 5805 l0 -615 85 0 85 0 0 153 0 153 49 48 c44 44 50 46 59 30
6 -10 75 -101 154 -201 l143 -182 104 0 c98 -1 103 0 89 17 -52 59 -378 476
-378 482 0 5 80 89 178 187 l177 178 -99 3 -98 3 -189 -193 -188 -193 -1 373
0 372 -85 0 -85 0 0 -615z"/>
<path d="M5742 5873 c3 -519 3 -529 25 -568 29 -55 70 -91 122 -110 58 -20
174 -19 231 4 l45 17 -1 53 c-1 28 -5 76 -9 106 l-6 54 -42 -5 c-29 -4 -48 -1
-62 9 -19 15 -20 29 -23 491 l-3 476 -140 0 -140 0 3 -527z"/>
<path d="M4688 6354 c-9 -9 -11 -1125 -2 -1148 9 -24 269 -24 278 0 3 9 6 94
6 190 l0 174 113 0 c185 0 299 36 393 122 135 124 149 386 27 527 -43 50 -87
79 -168 111 -57 23 -74 24 -350 28 -159 2 -293 0 -297 -4z m522 -247 c45 -24
77 -70 80 -117 6 -72 0 -93 -37 -130 -44 -43 -103 -60 -213 -60 l-70 0 0 165
0 165 98 0 c84 0 106 -4 142 -23z"/>
<path d="M11600 5770 l0 -581 88 3 87 3 3 218 2 217 108 0 c125 0 220 14 279
40 61 27 138 104 170 169 25 50 28 67 28 156 0 115 -17 164 -81 234 -91 101
-167 121 -463 121 l-221 0 0 -580z m405 429 c92 -13 139 -44 171 -112 42 -91
27 -177 -41 -243 -53 -51 -103 -64 -250 -64 l-105 0 0 215 0 215 78 0 c42 0
108 -5 147 -11z"/>
<path d="M6518 6060 c-80 -20 -185 -68 -206 -93 -9 -11 -3 -30 29 -93 23 -43
42 -81 44 -82 2 -2 32 10 67 26 115 55 239 61 292 14 21 -19 46 -72 46 -100 0
-16 -11 -18 -132 -17 -111 0 -145 -4 -203 -23 -190 -60 -264 -211 -184 -371
51 -102 141 -151 279 -151 86 0 148 22 205 72 25 22 47 39 49 37 1 -2 9 -22
17 -44 l15 -40 114 0 115 0 0 315 0 315 -33 67 c-62 126 -154 177 -332 184
-81 3 -122 -1 -182 -16z m270 -563 c3 -52 0 -60 -26 -86 -82 -83 -232 -54
-232 44 0 80 42 106 170 102 l85 -2 3 -58z"/>
<path d="M7703 6066 c-51 -17 -101 -47 -132 -80 -14 -14 -28 -26 -32 -26 -4 0
-9 21 -11 48 l-3 47 -125 0 -125 0 0 -430 0 -430 132 -3 132 -3 3 290 c3 272
4 290 23 311 32 35 70 50 130 50 68 0 109 -19 132 -63 16 -28 19 -69 23 -307
l5 -275 135 0 135 0 3 309 c3 345 -1 374 -60 462 -49 72 -122 107 -236 111
-54 2 -103 -2 -129 -11z"/>
<path d="M8380 6067 c-58 -17 -136 -56 -157 -79 -14 -16 -15 -25 -5 -68 6 -27
18 -65 26 -85 l15 -35 43 20 c82 37 172 19 205 -42 15 -29 18 -68 23 -308 l5
-275 130 0 130 0 3 314 c3 352 -2 385 -61 463 -19 24 -56 56 -87 73 -47 24
-68 29 -140 32 -48 2 -104 -3 -130 -10z"/>
<path d="M9897 6056 c-31 -13 -78 -41 -103 -61 -44 -36 -46 -37 -44 -14 1 13
2 37 1 52 l-1 28 -127 -3 -128 -3 0 -430 0 -430 133 -3 132 -3 0 285 0 284 25
31 c33 38 83 54 151 49 58 -5 85 -22 113 -73 13 -25 17 -75 21 -300 l5 -270
135 0 135 0 0 310 c0 280 -2 316 -19 369 -27 83 -70 135 -141 171 -49 25 -72
30 -144 33 -72 2 -95 -1 -144 -22z"/>
<path d="M10763 6066 c-182 -59 -293 -264 -265 -488 19 -151 92 -267 207 -326
100 -51 260 -40 354 24 46 31 51 30 51 -8 0 -89 -49 -165 -125 -193 -32 -13
-66 -16 -127 -14 -72 4 -93 9 -156 41 l-73 36 -40 -86 c-22 -48 -41 -91 -42
-96 -1 -5 13 -19 31 -32 125 -86 388 -106 558 -43 66 25 150 100 187 167 53
98 57 142 55 594 l-3 413 -92 3 c-121 4 -157 -6 -161 -41 -4 -32 -13 -34 -38
-6 -39 44 -94 63 -189 66 -57 2 -105 -2 -132 -11z m263 -225 c67 -31 74 -48
74 -186 0 -100 -3 -125 -19 -151 -56 -91 -215 -81 -270 17 -28 48 -38 138 -22
195 32 120 132 173 237 125z"/>
<path d="M12749 6058 c-148 -52 -228 -143 -269 -303 -80 -311 110 -585 405
-585 111 0 212 39 292 113 91 84 133 194 133 347 0 164 -47 272 -159 363 -65
53 -139 78 -246 83 -76 4 -100 1 -156 -18z m251 -148 c50 -25 96 -82 117 -145
20 -59 23 -200 5 -261 -34 -114 -122 -184 -231 -184 -102 0 -171 42 -219 134
-25 46 -27 61 -27 161 0 105 2 114 33 178 36 74 77 111 144 133 53 17 127 10
178 -16z"/>
<path d="M14660 6067 c-201 -46 -325 -221 -323 -457 0 -110 28 -198 88 -280
75 -102 173 -151 315 -158 168 -8 281 42 359 158 22 34 41 68 41 75 0 11 -43
28 -105 39 -26 4 -34 0 -60 -36 -18 -25 -52 -54 -85 -71 -50 -26 -62 -29 -131
-25 -59 4 -86 10 -121 31 -74 43 -127 128 -128 205 l0 32 335 0 335 0 0 74 c0
184 -99 337 -257 396 -70 26 -190 34 -263 17z m215 -155 c71 -36 118 -102 127
-177 l3 -30 -247 -3 c-277 -3 -259 -8 -231 73 20 61 84 127 144 148 57 22 151
16 204 -11z"/>
<path d="M15698 6064 c-53 -16 -125 -81 -157 -140 l-20 -39 -1 88 0 87 -80 0
-80 0 0 -435 0 -436 83 3 82 3 0 271 0 270 30 49 c41 66 102 103 194 117 l71
10 0 84 0 84 -37 -1 c-21 0 -59 -7 -85 -15z"/>
<path d="M9010 5625 l0 -436 133 3 132 3 3 433 2 432 -135 0 -135 0 0 -435z"/>
</g>
</svg>
